<?xml version="1.0" encoding="UTF-8"?>
<!-- Created with Inkscape (http://www.inkscape.org/) -->
<svg width="24" height="24" version="1.1" viewBox="0 0 6.35 6.35" xmlns="http://www.w3.org/2000/svg" xmlns:cc="http://creativecommons.org/ns#" xmlns:dc="http://purl.org/dc/elements/1.1/" xmlns:rdf="http://www.w3.org/1999/02/22-rdf-syntax-ns#">
 <metadata>
  <rdf:RDF>
   <cc:Work rdf:about="">
    <dc:format>image/svg+xml</dc:format>
    <dc:type rdf:resource="http://purl.org/dc/dcmitype/StillImage"/>
    <dc:title/>
   </cc:Work>
  </rdf:RDF>
 </metadata>
 <g transform="translate(0 -290.65)" display="none" fill="none" stroke="#0000f9" stroke-linecap="round" stroke-linejoin="round" stroke-width=".0052917">
  <circle cx="3.175" cy="293.82" r="2.6458"/>
  <rect x=".79375" y="291.44" width="4.7625" height="4.7625" ry=".52917"/>
  <rect x="1.0583" y="291.18" width="4.2333" height="5.2917" ry=".52917"/>
  <rect x=".52917" y="291.71" width="5.2917" height="4.2333" ry=".52917"/>
  <circle cx="3.175" cy="293.82" r="1.3229"/>
 </g>
 <g display="none">
  <path transform="scale(.26458)" d="m12 1.9785a2 2 0 0 0-1.7422 1.0215h-0.25781l-1-1h-2v4h2l1-1h0.2832a2 2 0 0 0 0.7168 0.70703v0.43555c-1.7223 0.44607-3 1.9957-3 3.8574v10c0 1.108 0.892 2 2 2h4c1.108 0 2-0.892 2-2v-10c0-1.8617-1.2777-3.4114-3-3.8574v-0.43555a2 2 0 0 0 0.7168-0.70703h1.2832v-2h-1.2559a2 2 0 0 0-1.7441-1.0215zm0 1a1 1 0 0 1 1 1 1 1 0 0 1-1 1 1 1 0 0 1-1-1 1 1 0 0 1 1-1z" fill="#424242"/>
 </g>
 <path transform="scale(.26458)" d="m15.998 5.9414a6 6 0 0 0-5.6699 4.0586h-8.3281v4h8.3711a6 6 0 0 0 5.627 3.9414 6 6 0 0 0 6-6 6 6 0 0 0-6-6zm0 2a4 4 0 0 1 4 4 4 4 0 0 1-4 4 4 4 0 0 1-4-4 4 4 0 0 1 4-4zm-0.048828 2.002a2 2 0 0 0-1.0586 0.33203 1 1 0 0 1 0.23242 1.2129 1 1 0 0 1-1.123 0.51172 2 2 0 0 0 0.33594 1.0469 1 1 0 0 1 1.2012-0.2168 1 1 0 0 1 0.51367 1.1094 2 2 0 0 0 1.0488-0.33008 1 1 0 0 1-0.20312-1.1875 1 1 0 0 1 1.0996-0.51758 2 2 0 0 0-0.33789-1.0742 1 1 0 0 1-1.1914 0.20703 1 1 0 0 1-0.51758-1.0937z" fill="#424242"/>
</svg>
