<?xml version="1.0" encoding="UTF-8" standalone="no"?>
<!-- Created with Inkscape (http://www.inkscape.org/) -->

<svg
   xmlns:dc="http://purl.org/dc/elements/1.1/"
   xmlns:cc="http://creativecommons.org/ns#"
   xmlns:rdf="http://www.w3.org/1999/02/22-rdf-syntax-ns#"
   xmlns:svg="http://www.w3.org/2000/svg"
   xmlns="http://www.w3.org/2000/svg"
   xmlns:sodipodi="http://sodipodi.sourceforge.net/DTD/sodipodi-0.dtd"
   xmlns:inkscape="http://www.inkscape.org/namespaces/inkscape"
   width="24"
   height="24"
   viewBox="0 0 6.3499999 6.3500002"
   version="1.1"
   id="svg2314"
   inkscape:version="0.92.2 2405546, 2018-03-11"
   sodipodi:docname="tank.svg">
  <defs
     id="defs2308" />
  <sodipodi:namedview
     id="base"
     pagecolor="#ffffff"
     bordercolor="#666666"
     borderopacity="1.0"
     inkscape:pageopacity="0.0"
     inkscape:pageshadow="2"
     inkscape:zoom="31.678384"
     inkscape:cx="13.645341"
     inkscape:cy="13.748725"
     inkscape:document-units="px"
     inkscape:current-layer="layer2"
     showgrid="true"
     units="px"
     showguides="true"
     inkscape:guide-bbox="true"
     inkscape:window-width="1920"
     inkscape:window-height="1025"
     inkscape:window-x="0"
     inkscape:window-y="27"
     inkscape:window-maximized="1">
    <inkscape:grid
       type="xygrid"
       id="grid2859" />
    <sodipodi:guide
       position="3.175,5.55625"
       orientation="1,0"
       id="guide2887"
       inkscape:locked="false" />
    <sodipodi:guide
       position="3.175,3.1750001"
       orientation="0,1"
       id="guide2889"
       inkscape:locked="false" />
    <sodipodi:guide
       position="3.1749999,3.1750001"
       orientation="-0.70710678,0.70710678"
       id="guide2891"
       inkscape:locked="false" />
    <sodipodi:guide
       position="3.1749998,3.1750001"
       orientation="0.70710678,0.70710678"
       id="guide2893"
       inkscape:locked="false" />
  </sodipodi:namedview>
  <metadata
     id="metadata2311">
    <rdf:RDF>
      <cc:Work
         rdf:about="">
        <dc:format>image/svg+xml</dc:format>
        <dc:type
           rdf:resource="http://purl.org/dc/dcmitype/StillImage" />
        <dc:title></dc:title>
      </cc:Work>
    </rdf:RDF>
  </metadata>
  <g
     inkscape:label="Material template"
     inkscape:groupmode="layer"
     id="layer1"
     transform="translate(0,-290.64998)"
     sodipodi:insensitive="true">
    <circle
       style="fill:none;fill-opacity:1;stroke:#0000f9;stroke-width:0.00529167;stroke-linecap:round;stroke-linejoin:round;stroke-miterlimit:4;stroke-dasharray:none;stroke-opacity:1"
       id="path2895"
       cx="3.1750002"
       cy="293.82498"
       r="2.6458335" />
    <rect
       style="fill:none;fill-opacity:1;stroke:#0000f9;stroke-width:0.00529167;stroke-linecap:round;stroke-linejoin:round;stroke-miterlimit:4;stroke-dasharray:none;stroke-opacity:1"
       id="rect2927"
       width="4.7625003"
       height="4.7625003"
       x="0.79375005"
       y="291.44373"
       ry="0.5291667" />
    <rect
       style="fill:none;fill-opacity:1;stroke:#0000f9;stroke-width:0.00529167;stroke-linecap:round;stroke-linejoin:round;stroke-miterlimit:4;stroke-dasharray:none;stroke-opacity:1"
       id="rect2929"
       width="4.2333336"
       height="5.291667"
       x="1.0583334"
       y="291.17914"
       ry="0.5291667" />
    <rect
       style="fill:none;fill-opacity:1;stroke:#0000f9;stroke-width:0.00529167;stroke-linecap:round;stroke-linejoin:round;stroke-miterlimit:4;stroke-dasharray:none;stroke-opacity:1"
       id="rect2931"
       width="5.291667"
       height="4.2333336"
       x="0.5291667"
       y="291.70831"
       ry="0.5291667" />
    <circle
       style="fill:none;fill-opacity:1;stroke:#0000f9;stroke-width:0.00529167;stroke-linecap:round;stroke-linejoin:round;stroke-miterlimit:4;stroke-dasharray:none;stroke-opacity:1"
       id="path2952"
       cx="3.1749997"
       cy="293.82498"
       r="1.3229164" />
  </g>
  <g
     inkscape:groupmode="layer"
     id="layer2"
     inkscape:label="tank">
    <g
       id="g2990">
      <path
         id="rect2959"
         transform="scale(0.26458334)"
         d="M 12 1.9785156 A 2.0000001 2.0000001 0 0 0 10.257812 3 L 10 3 L 9 2 L 7 2 L 7 3 L 7 5 L 7 6 L 9 6 L 10 5 L 10.283203 5 A 2.0000001 2.0000001 0 0 0 11 5.7070312 L 11 6.1425781 C 9.2777328 6.5886461 8.0000001 8.1382614 8 10 L 8 12 L 8 20 C 8 21.108 8.8919999 22 10 22 L 14 22 C 15.108 22 16 21.108 16 20 L 16 12 L 16 10 C 16 8.1382614 14.722267 6.5886461 13 6.1425781 L 13 5.7070312 A 2.0000001 2.0000001 0 0 0 13.716797 5 L 15 5 L 15 3 L 13.744141 3 A 2.0000001 2.0000001 0 0 0 12 1.9785156 z M 12 2.9785156 A 1.0000001 1.0000001 0 0 1 13 3.9785156 A 1.0000001 1.0000001 0 0 1 12 4.9785156 A 1.0000001 1.0000001 0 0 1 11 3.9785156 A 1.0000001 1.0000001 0 0 1 12 2.9785156 z "
         style="fill:#424242;fill-opacity:1;stroke:none;stroke-width:0.02000001;stroke-linecap:round;stroke-linejoin:round;stroke-miterlimit:4;stroke-dasharray:none;stroke-opacity:1" />
    </g>
  </g>
</svg>
